<?xml version="1.0" encoding="UTF-8" standalone="no"?>
<!DOCTYPE svg PUBLIC "-//W3C//DTD SVG 1.1//EN" "http://www.w3.org/Graphics/SVG/1.1/DTD/svg11.dtd">
<svg width="100%" height="100%" viewBox="0 0 155 155" version="1.1" xmlns="http://www.w3.org/2000/svg" xmlns:xlink="http://www.w3.org/1999/xlink" xml:space="preserve" xmlns:serif="http://www.serif.com/" style="fill-rule:evenodd;clip-rule:evenodd;stroke-linecap:round;stroke-linejoin:round;">
    <g transform="matrix(1,0,0,1,-498.08,-1005.34)">
        <g id="feather" transform="matrix(-6.43267,1.45717e-15,1.45717e-15,6.43267,575.272,1082.53)">
            <g transform="matrix(1,0,0,1,-12,-12)">
                <g transform="matrix(-1,0,-0,1,23.9983,0)">
                    <path d="M20.24,12.24C21.365,11.115 21.998,9.587 21.998,7.995C21.998,4.702 19.288,1.992 15.995,1.992C14.403,1.992 12.875,2.625 11.75,3.75L5,10.5L5,19L13.5,19L20.24,12.24Z" style="fill:none;stroke:black;stroke-width:2px;"/>
                </g>
                <g transform="matrix(-1,0,-0,1,23.9983,0)">
                    <path d="M16,8L2,22" style="fill:none;stroke:black;stroke-width:2px;"/>
                </g>
                <g transform="matrix(0.0823445,0.996604,-0.996604,0.0823445,26.7397,-5.70684)">
                    <path d="M17.5,15L9,15" style="fill:none;stroke:black;stroke-width:1.8px;"/>
                </g>
                <g transform="matrix(0.999349,0.0360753,-0.0360753,0.999349,-2.03856,-0.621553)">
                    <path d="M17.5,15L9,15" style="fill:none;stroke:black;stroke-width:2px;"/>
                </g>
                <g transform="matrix(1.25556,0,0,1,-9.86666,2.3)">
                    <path d="M12,20L21,20" style="fill:none;stroke:black;stroke-width:1.76px;"/>
                </g>
            </g>
        </g>
    </g>
</svg>
